<?xml version="1.0" encoding="UTF-8"?>
<svg version="1.1" xmlns="http://www.w3.org/2000/svg" width="318" height="312">
<path d="M0 0 C1.27447495 -0.00860046 2.54894989 -0.01720093 3.86204529 -0.02606201 C5.28251607 -0.03049737 6.70298729 -0.03479572 8.12345886 -0.03897095 C9.61316113 -0.04687091 11.10286149 -0.05513979 12.59255981 -0.06375122 C17.49240793 -0.08998241 22.39226465 -0.10527937 27.29216003 -0.11953735 C28.97789198 -0.12489648 30.66362387 -0.13027398 32.3493557 -0.13566971 C39.36051219 -0.15729954 46.37166637 -0.17603701 53.38284779 -0.1872921 C63.43637099 -0.20353638 73.489508 -0.23672429 83.5428856 -0.29369295 C90.6087631 -0.33236988 97.6745372 -0.35192207 104.7405178 -0.35721266 C108.96229685 -0.36086909 113.18366413 -0.37292067 117.40532875 -0.4053154 C121.37729589 -0.43535708 125.34860126 -0.44172222 129.32065773 -0.42993164 C130.77794866 -0.42971058 132.23526994 -0.43804293 133.69245529 -0.45558548 C135.68294352 -0.47824271 137.67373131 -0.46700835 139.66430664 -0.45410156 C141.33484714 -0.45906678 141.33484714 -0.45906678 143.03913593 -0.46413231 C146.98387893 0.35302373 148.46569798 2.12037005 151.02262878 5.15390015 C152.40153503 7.31015015 152.40153503 7.31015015 153.58512878 9.65390015 C156.45192222 15.11758535 159.45576969 20.48729937 162.52262878 25.84140015 C163.03728699 26.74092407 163.55194519 27.640448 164.0821991 28.56723022 C168.54768659 36.35607613 173.07000306 44.11128808 177.60099792 51.8621521 C185.11875374 64.72760047 192.54705644 77.6446289 199.98258972 90.55770874 C201.29044232 92.82878148 202.59870721 95.09961684 203.90739441 97.37020874 C205.17851974 99.57664793 206.44808726 101.78398541 207.71598816 103.99227905 C210.48867841 108.81193672 213.2816227 113.61186252 216.18669128 118.3531189 C216.66001892 119.13163208 217.13334656 119.91014526 217.62101746 120.71224976 C218.47949635 122.11727528 219.34856345 123.51591795 220.23088074 124.90609741 C222.64062071 128.86098241 223.8496198 131.54721077 223.02262878 136.15390015 C221.65745123 139.20150672 219.96009928 142.0011691 218.21012878 144.84140015 C217.18894988 146.54952693 216.16812598 148.25786599 215.14762878 149.96640015 C214.62426941 150.83265015 214.10091003 151.69890015 213.56169128 152.59140015 C211.22685592 156.47884176 208.97059733 160.41042396 206.71012878 164.34140015 C203.71254343 169.52809348 200.7017877 174.70686324 197.67497253 179.8765564 C191.88735961 189.7638968 186.13916246 199.66818988 180.52262878 209.65390015 C175.47861643 218.62171711 170.34205293 227.53123577 165.13664246 236.40634155 C162.32862192 241.19423981 159.53795529 245.98960132 156.79997253 250.81796265 C156.29804382 251.69935913 155.79611511 252.58075562 155.27897644 253.48886108 C154.341938 255.13731356 153.41029025 256.78884641 152.48503113 258.44393921 C152.07075867 259.17064819 151.65648621 259.89735718 151.22966003 260.64608765 C150.87363708 261.2788562 150.51761414 261.91162476 150.15080261 262.56356812 C149.02262878 264.15390015 149.02262878 264.15390015 146.02262878 266.15390015 C143.77940083 266.3999958 143.77940083 266.3999958 141.10620117 266.39440918 C140.09237869 266.39715851 139.07855621 266.39990784 138.03401184 266.40274048 C136.92270905 266.39554993 135.81140625 266.38835937 134.66642761 266.38095093 C132.91012779 266.38138901 132.91012779 266.38138901 131.11834717 266.38183594 C127.90781386 266.38068063 124.69745448 266.37064421 121.48695588 266.35668802 C118.13172297 266.34419279 114.77648672 266.34301112 111.42123413 266.34063721 C105.06767649 266.33441888 98.71418761 266.31800332 92.36066025 266.29793823 C85.12736435 266.27559018 77.89406518 266.26458856 70.66074336 266.25454736 C55.78133351 266.23363738 40.90198802 266.19845457 26.02262878 266.15390015 C26.4233963 265.41956757 26.82416382 264.68523499 27.23707581 263.9286499 C27.76878387 262.95416901 28.30049194 261.97968811 28.84831238 260.97567749 C29.3728299 260.01446991 29.89734741 259.05326233 30.4377594 258.06292725 C31.89982825 255.37930048 33.35708086 252.69313761 34.81169128 250.00546265 C40.37999665 239.73375574 45.99137639 229.48973865 51.87052917 219.39169312 C54.0135828 215.71071663 56.11505765 212.05680169 57.94450378 208.20858765 C58.48591003 207.11804077 59.02731628 206.0274939 59.58512878 204.90390015 C60.20581238 203.53491577 60.20581238 203.53491577 60.83903503 202.13827515 C67.32663327 196.2425687 83.19705065 199.04414984 91.71012878 199.09140015 C93.29801799 199.09642768 94.88590875 199.10098836 96.47380066 199.10507202 C100.32344904 199.1159726 104.17302132 199.13316732 108.02262878 199.15390015 C108.3053363 198.25566528 108.58804382 197.35743042 108.87931824 196.43197632 C109.84931634 193.65081798 110.89798121 191.27135851 112.31559753 188.7046814 C112.77377869 187.8696106 113.23195984 187.03453979 113.70402527 186.17416382 C114.44954651 184.8338208 114.44954651 184.8338208 115.21012878 183.46640015 C115.72970154 182.52320923 116.24927429 181.58001831 116.78459167 180.60824585 C118.52484398 177.45357462 120.27317447 174.30347685 122.02262878 171.15390015 C122.67315302 169.9804716 123.32354075 168.80696738 123.97380066 167.63339233 C127.20205826 161.80775308 130.43526816 155.98490252 133.67497253 150.1656189 C134.2419989 149.13743042 134.80902527 148.10924194 135.39323425 147.04989624 C136.43115925 145.20514552 137.50021486 143.37732667 138.60905457 141.5743103 C139.07682312 140.80264526 139.54459167 140.03098022 140.02653503 139.2359314 C140.43847107 138.58471313 140.8504071 137.93349487 141.27482605 137.26254272 C142.66443354 133.34414902 141.45634545 130.0942114 139.77018738 126.43856812 C139.24247742 125.51704956 138.71476746 124.59553101 138.17106628 123.64608765 C137.57406921 122.59002319 136.97707214 121.53395874 136.36198425 120.44589233 C135.71374695 119.31828491 135.06550964 118.19067749 134.39762878 117.02890015 C133.02849543 114.61740116 131.66602462 112.2021639 130.30387878 109.78671265 C129.77708023 108.85520386 129.77708023 108.85520386 129.23963928 107.90487671 C126.71933709 103.43441154 124.27249199 98.92894025 121.86637878 94.39608765 C121.53135345 93.76536346 121.19632813 93.13463928 120.85115051 92.48480225 C119.54828461 90.02825175 118.24752328 87.57066483 116.95542908 85.10842896 C116.06274328 83.40784088 115.16387375 81.7105033 114.26481628 80.01327515 C113.75805359 79.04873413 113.25129089 78.08419312 112.72917175 77.09042358 C112.16601257 76.12137085 111.60285339 75.15231812 111.02262878 74.15390015 C110.62365891 73.21440018 110.62365891 73.21440018 110.21662903 72.25592041 C109.03479906 69.96124565 108.10946943 68.69640766 106.02262878 67.15390015 C101.21670163 66.16947527 96.44023163 66.36407551 91.56169128 66.50546265 C90.12832224 66.52107883 88.69491422 66.53342772 87.26148987 66.54266357 C83.49200767 66.57499693 79.72445739 66.64844353 75.95579529 66.73153687 C71.39165026 66.82519254 66.82685302 66.87349027 62.26207542 66.92546654 C58.70689093 66.96638498 55.15242054 67.01486234 51.59773254 67.08764648 C50.31305084 67.11031586 49.02836914 67.13298523 47.70475769 67.15634155 C46.01861862 67.19134262 46.01861862 67.19134262 44.29841614 67.22705078 C40.8040517 67.14901917 37.47012361 66.71295797 34.02262878 66.15390015 C42.95686785 82.72105061 42.95686785 82.72105061 52.02262878 99.21640015 C52.59920227 100.25969482 52.59920227 100.25969482 53.18742371 101.32406616 C55.59033732 105.65068124 58.05892776 109.93336501 60.56559753 114.20077515 C61.16952332 115.23967896 61.7734491 116.27858276 62.39567566 117.34896851 C63.58406183 119.39074771 64.78418618 121.42575044 65.99723816 123.45297241 C66.53542175 124.38166138 67.07360535 125.31035034 67.62809753 126.2671814 C68.1143158 127.0900061 68.60053406 127.91283081 69.10148621 128.7605896 C70.26079489 131.77270279 70.01593886 133.10170798 69.02262878 136.15390015 C68.11232015 138.11954378 67.13029166 140.05268406 66.10075378 141.95858765 C65.19039368 143.65253662 65.19039368 143.65253662 64.26164246 145.38070679 C63.59889921 146.59691367 62.93588825 147.8129747 62.27262878 149.02890015 C61.59171584 150.2884059 60.91113706 151.54809237 60.23088074 152.80795288 C55.45893537 161.62163961 50.55451915 170.35755906 45.58586121 179.06185913 C42.29381486 184.84510166 39.13953905 190.67965853 36.08512878 196.59140015 C31.84641146 204.77546502 27.24465383 212.71662165 22.56608582 220.65585327 C16.04622942 231.74791583 9.82813542 243.00035738 3.6158905 254.26669312 C1.42667552 258.23384855 -0.77396845 262.19461135 -2.97737122 266.15390015 C-8.41604357 264.9720936 -10.02977705 261.70614253 -12.97737122 257.15390015 C-14.87739034 253.97092418 -16.70531438 250.75114414 -18.51643372 247.5171814 C-21.56234051 242.08690473 -24.71199327 236.71739406 -27.85237122 231.34140015 C-28.75270081 229.7939209 -28.75270081 229.7939209 -29.67121887 228.21517944 C-32.44429871 223.45506307 -35.23408917 218.70892773 -38.10237122 214.00546265 C-38.57046204 213.23178345 -39.03855286 212.45810425 -39.52082825 211.66098022 C-40.38233293 210.24109288 -41.2525615 208.8264466 -42.13313293 207.41830444 C-44.34116008 203.76469047 -45.42024 201.40552041 -44.97737122 197.15390015 C-43.87922668 194.74130249 -43.87922668 194.74130249 -42.34455872 192.23983765 C-41.78510559 191.31300171 -41.22565247 190.38616577 -40.64924622 189.4312439 C-40.05627747 188.47347046 -39.46330872 187.51569702 -38.85237122 186.52890015 C-37.70203461 184.6420358 -36.55359362 182.75401447 -35.40705872 180.86483765 C-34.54926819 179.45319336 -34.54926819 179.45319336 -33.67414856 178.01303101 C-31.46492529 174.29041033 -29.39721413 170.50039618 -27.34407043 166.69003296 C-25.47220592 163.21648373 -23.53974487 159.77867598 -21.60237122 156.34140015 C-21.22878479 155.67197388 -20.85519836 155.00254761 -20.47029114 154.31283569 C-18.55837979 150.89873701 -16.60689565 147.52297307 -14.55158997 144.19296265 C-13.98093811 143.25093994 -13.98093811 143.25093994 -13.39875793 142.28988647 C-12.35052196 140.56613604 -11.2836343 138.8537681 -10.21565247 137.1421814 C-8.65990818 134.29308978 -8.65990818 134.29308978 -9.70954895 131.83114624 C-11.07354136 128.95081873 -12.5138341 126.13625155 -14.02424622 123.3296814 C-14.62237122 122.21786499 -15.22049622 121.10604858 -15.83674622 119.96054077 C-16.46065247 118.80747437 -17.08455872 117.65440796 -17.72737122 116.46640015 C-18.33580872 115.33266968 -18.94424622 114.19893921 -19.57112122 113.03085327 C-22.81894241 107.01058642 -26.16323227 101.07870543 -29.71760559 95.23422241 C-31.70007387 91.96046036 -33.51042454 88.6047006 -35.31721497 85.23202515 C-36.5783362 82.893758 -37.8630032 80.57639316 -39.16877747 78.26327515 C-39.91771149 76.91444789 -40.66641114 75.56549046 -41.41487122 74.21640015 C-41.78144836 73.57742798 -42.14802551 72.93845581 -42.52571106 72.28012085 C-45.0406871 67.69688395 -45.0406871 67.69688395 -44.7615509 65.30307007 C-43.74033423 62.50426235 -42.36015678 60.06424735 -40.87190247 57.48202515 C-40.22463196 56.35393433 -39.57736145 55.22584351 -38.91047668 54.06356812 C-38.20377142 52.84358423 -37.49689907 51.62369711 -36.78987122 50.40390015 C-36.0670336 49.14905274 -35.34454397 47.89400482 -34.62239075 46.63876343 C-32.41485217 42.8061343 -30.19712098 38.97946629 -27.97737122 35.15390015 C-27.63699829 34.56677246 -27.29662537 33.97964478 -26.94593811 33.37472534 C-23.15286369 26.83200209 -19.35668662 20.2909135 -15.5193634 13.77401733 C-14.44602486 11.95022549 -13.37946569 10.12243393 -12.31819153 8.29159546 C-11.78548645 7.38248413 -11.25278137 6.4733728 -10.70393372 5.53671265 C-10.22778625 4.71831909 -9.75163879 3.89992554 -9.26106262 3.05673218 C-6.82686778 -0.55150567 -4.0813819 0.02044171 0 0 Z " fill="#008BFD" transform="translate(90.97737121582031,23.846099853515625)"/>
<path d="M0 0 C0.33 0 0.66 0 1 0 C1.74604667 6.09432931 -0.73754098 9.69679067 -3.8125 14.6875 C-4.8336789 16.39562679 -5.85450281 18.10396585 -6.875 19.8125 C-7.39835938 20.67875 -7.92171875 21.545 -8.4609375 22.4375 C-10.79577286 26.32494162 -13.05203145 30.25652381 -15.3125 34.1875 C-18.31008536 39.37419334 -21.32084109 44.5529631 -24.34765625 49.72265625 C-30.13526917 59.60999665 -35.88346633 69.51428974 -41.5 79.5 C-46.54401235 88.46781696 -51.68057585 97.37733562 -56.88598633 106.25244141 C-59.69400687 111.04033966 -62.4846735 115.83570117 -65.22265625 120.6640625 C-65.97554932 121.98615723 -65.97554932 121.98615723 -66.74365234 123.33496094 C-67.68069079 124.98341342 -68.61233854 126.63494626 -69.53759766 128.29003906 C-69.95187012 129.01674805 -70.36614258 129.74345703 -70.79296875 130.4921875 C-71.1489917 131.12495605 -71.50501465 131.75772461 -71.87182617 132.40966797 C-73 134 -73 134 -76 136 C-78.24322796 136.24609566 -78.24322796 136.24609566 -80.91642761 136.24050903 C-81.93025009 136.24325836 -82.94407257 136.24600769 -83.98861694 136.24884033 C-85.09991974 136.24164978 -86.21122253 136.23445923 -87.35620117 136.22705078 C-89.11250099 136.22748886 -89.11250099 136.22748886 -90.90428162 136.22793579 C-94.11481492 136.22678049 -97.3251743 136.21674407 -100.5356729 136.20278788 C-103.89090581 136.19029264 -107.24614207 136.18911097 -110.60139465 136.18673706 C-116.95495229 136.18051873 -123.30844118 136.16410317 -129.66196853 136.14403808 C-136.89526443 136.12169003 -144.1285636 136.11068841 -151.36188543 136.10064721 C-166.24129527 136.07973723 -181.12064076 136.04455442 -196 136 C-195.59923248 135.26566742 -195.19846497 134.53133484 -194.78555298 133.77474976 C-194.25384491 132.80026886 -193.72213684 131.82578796 -193.17431641 130.82177734 C-192.64979889 129.86056976 -192.12528137 128.89936218 -191.58486938 127.9090271 C-190.12280054 125.22540033 -188.66554792 122.53923746 -187.2109375 119.8515625 C-181.64263213 109.57985559 -176.0312524 99.33583851 -170.15209961 89.23779297 C-168.00904599 85.55681649 -165.90757114 81.90290154 -164.078125 78.0546875 C-163.53671875 76.96414062 -162.9953125 75.87359375 -162.4375 74.75 C-161.81681641 73.38101563 -161.81681641 73.38101563 -161.18359375 71.984375 C-154.69599552 66.08866855 -138.82557813 68.8902497 -130.3125 68.9375 C-128.72461079 68.94252753 -127.13672004 68.94708821 -125.54882812 68.95117188 C-121.69917975 68.96207245 -117.84960747 68.97926717 -114 69 C-113.71729248 68.10176514 -113.43458496 67.20353027 -113.14331055 66.27807617 C-112.17331245 63.49691783 -111.12464758 61.11745837 -109.70703125 58.55078125 C-109.24893066 57.71595215 -108.79083008 56.88112305 -108.31884766 56.02099609 C-107.82175293 55.12719238 -107.3246582 54.23338867 -106.8125 53.3125 C-106.03205322 51.89445068 -106.03205322 51.89445068 -105.23583984 50.44775391 C-102.53157544 45.54225165 -99.80572275 40.648826 -97.07713318 35.75682068 C-96.41255778 34.56527261 -95.74822144 33.37359119 -95.0841217 32.18177795 C-93.47776295 29.2990188 -91.86850014 26.41803748 -90.25317383 23.5402832 C-89.65657959 22.47253662 -89.05998535 21.40479004 -88.4453125 20.3046875 C-87.92469238 19.37640137 -87.40407227 18.44811523 -86.86767578 17.49169922 C-84.13598629 12.38468966 -81.59012255 7.1802451 -79 2 C-39.895 2.495 -39.895 2.495 0 3 C0 2.01 0 1.02 0 0 Z " fill="#015CED" transform="translate(313,154)"/>
<path d="M0 0 C5.03052476 6.63114627 5.03052476 6.63114627 4.80761719 9.32470703 C3.88023808 12.39672042 2.60390992 14.98012024 1.078125 17.8046875 C0.16776489 19.49863647 0.16776489 19.49863647 -0.76098633 21.22680664 C-1.42372958 22.44301352 -2.08674054 23.65907456 -2.75 24.875 C-3.43091294 26.13450576 -4.11149172 27.39419222 -4.79174805 28.65405273 C-9.56369341 37.46773946 -14.46810963 46.20365891 -19.43676758 54.90795898 C-22.72881393 60.69120151 -25.88308974 66.52575838 -28.9375 72.4375 C-33.17621733 80.62156487 -37.77797495 88.56272151 -42.45654297 96.50195312 C-48.97639937 107.59401568 -55.19449337 118.84645724 -61.40673828 130.11279297 C-63.59595326 134.0799484 -65.79659724 138.04071121 -68 142 C-73.43867235 140.81819345 -75.05240584 137.55224239 -78 133 C-79.90001913 129.81702403 -81.72794317 126.59724399 -83.5390625 123.36328125 C-86.58496929 117.93300458 -89.73462205 112.56349391 -92.875 107.1875 C-93.47521973 106.15584717 -94.07543945 105.12419434 -94.69384766 104.0612793 C-97.4669275 99.30116293 -100.25671795 94.55502758 -103.125 89.8515625 C-103.59309082 89.0778833 -104.06118164 88.3042041 -104.54345703 87.50708008 C-105.40496171 86.08719273 -106.27519028 84.67254646 -107.15576172 83.2644043 C-109.36378886 79.61079032 -110.44286878 77.25162026 -110 73 C-108.90185547 70.58740234 -108.90185547 70.58740234 -107.3671875 68.0859375 C-106.80773437 67.15910156 -106.24828125 66.23226562 -105.671875 65.27734375 C-105.07890625 64.31957031 -104.4859375 63.36179688 -103.875 62.375 C-102.72466339 60.48813566 -101.5762224 58.60011433 -100.4296875 56.7109375 C-99.85782715 55.76984131 -99.2859668 54.82874512 -98.69677734 53.85913086 C-96.48755408 50.13651019 -94.41984292 46.34649603 -92.36669922 42.53613281 C-90.49483935 39.06259221 -88.562712 35.62457848 -86.625 32.1875 C-86.25068848 31.51807373 -85.87637695 30.84864746 -85.49072266 30.15893555 C-83.58058302 26.75301458 -81.63687989 23.37662186 -79.609375 20.0390625 C-79.23345215 19.41104736 -78.8575293 18.78303223 -78.47021484 18.13598633 C-77.43584391 16.41380254 -76.38634672 14.70072999 -75.3359375 12.98828125 C-73.8661158 9.70052219 -73.86649852 8.35690823 -75 5 C-74.01 5.33 -73.02 5.66 -72 6 C-72 6.99 -72 7.98 -72 9 C-47.58 8.67 -23.16 8.34 2 8 C1.01 6.02 1.01 6.02 0 4 C0 2.68 0 1.36 0 0 Z " fill="#015CEE" transform="translate(156,148)"/>
<path d="M0 0 C0.66 0 1.32 0 2 0 C2.59425781 1.13953125 3.18851563 2.2790625 3.80078125 3.453125 C4.19620117 4.20827393 4.59162109 4.96342285 4.99902344 5.74145508 C5.88329954 7.43029094 6.76542148 9.12025628 7.64550781 10.8112793 C10.0662096 15.43366295 12.55292917 19.99729572 15.18359375 24.50390625 C15.69559326 25.39239258 16.20759277 26.28087891 16.73510742 27.19628906 C17.73032793 28.91502927 18.74181126 30.62447415 19.77075195 32.32324219 C23.10439005 38.12428343 23.10439005 38.12428343 22.6484375 41.94921875 C21.83246094 43.45935547 21.83246094 43.45935547 21 45 C20.41605469 46.09018433 20.41605469 46.09018433 19.8203125 47.20239258 C18.38324817 49.82952581 16.88663602 52.41510241 15.375 55 C14.29425295 56.86847924 13.21352385 58.73696886 12.1328125 60.60546875 C11.60204102 61.5186084 11.07126953 62.43174805 10.52441406 63.37255859 C8.41468079 67.00884134 6.33105622 70.65975731 4.25 74.3125 C3.16666667 76.20833333 2.08333333 78.10416667 1 80 C-2.17340178 77.88439881 -2.75774278 76.96852111 -4.4375 73.6875 C-8.07524198 66.78039497 -11.9681339 60.02836184 -15.86108398 53.26245117 C-16.36583252 52.38306885 -16.87058105 51.50368652 -17.390625 50.59765625 C-17.84469727 49.80883057 -18.29876953 49.02000488 -18.76660156 48.20727539 C-19.17362305 47.47887451 -19.58064453 46.75047363 -20 46 C-20.58285767 44.95936401 -20.58285767 44.95936401 -21.17749023 43.89770508 C-22.42567846 41.0178692 -21.75680822 38.9888162 -21 36 C-20.01171875 33.7109375 -20.01171875 33.7109375 -18.6875 31.375 C-18.15898437 30.44171875 -17.63046875 29.5084375 -17.0859375 28.546875 C-12.88415836 21.35973392 -8.59376739 14.22346556 -4.26806641 7.11035156 C-3.23507838 5.39122401 -2.24226944 3.64800435 -1.26171875 1.8984375 C-0.63716797 0.95871094 -0.63716797 0.95871094 0 0 Z " fill="#03B2F6" transform="translate(30,117)"/>
<path d="M0 0 C1.27584961 -0.01134979 2.55169922 -0.02269958 3.86621094 -0.03439331 C5.28305116 -0.03174987 6.69989081 -0.02877862 8.11672974 -0.0255127 C9.60658405 -0.03285088 11.09643266 -0.04143637 12.58627319 -0.05117798 C16.63593906 -0.07343112 20.68540168 -0.07632272 24.7351203 -0.07443047 C28.1148644 -0.07431092 31.49456519 -0.08286861 34.87429726 -0.09120798 C42.84804101 -0.11045631 50.82168006 -0.11332093 58.79544067 -0.10656738 C67.02246682 -0.0999275 75.24904451 -0.12278527 83.47597969 -0.15988111 C90.53765732 -0.19056787 97.59919063 -0.20193921 104.66093361 -0.1980443 C108.8793062 -0.19597545 113.09733 -0.20147633 117.3156395 -0.22593689 C121.28356718 -0.24818444 125.25076571 -0.24634354 129.21869659 -0.22600937 C130.67435649 -0.22259553 132.13006526 -0.22770468 133.58565903 -0.24199295 C135.57395633 -0.26016221 137.56247699 -0.24444188 139.55078125 -0.22705078 C141.21937352 -0.22811954 141.21937352 -0.22811954 142.92167473 -0.2292099 C146.87384398 0.59765913 148.34224857 2.34654341 150.90237427 5.39440918 C152.70315552 8.21862793 152.70315552 8.21862793 154.21487427 11.08190918 C154.72663208 12.03452637 155.23838989 12.98714355 155.76565552 13.96862793 C156.90237427 16.39440918 156.90237427 16.39440918 156.90237427 18.39440918 C154.90237427 18.39440918 154.90237427 18.39440918 153.40237427 17.21081543 C151.05995844 14.37429626 150.17576416 11.10765301 148.96487427 7.67175293 C147.99679414 5.08216454 147.99679414 5.08216454 144.90237427 3.39440918 C144.90237427 2.73440918 144.90237427 2.07440918 144.90237427 1.39440918 C95.40237427 1.39440918 45.90237427 1.39440918 -5.09762573 1.39440918 C-5.09762573 2.05440918 -5.09762573 2.71440918 -5.09762573 3.39440918 C-4.10762573 3.72440918 -3.11762573 4.05440918 -2.09762573 4.39440918 C-5.09762573 5.39440918 -5.09762573 5.39440918 -8.09762573 4.39440918 C-8.09762573 5.38440918 -8.09762573 6.37440918 -8.09762573 7.39440918 C-9.08762573 7.72440918 -10.07762573 8.05440918 -11.09762573 8.39440918 C-8.80970132 1.8826243 -7.03023175 0.02358111 0 0 Z " fill="#177FD0" transform="translate(91.09762573242188,23.6055908203125)"/>
<path d="M0 0 C1 2 1 2 -1 10 C36.62 10 74.24 10 113 10 C113.66 8.68 114.32 7.36 115 6 C115.33 5.34 115.66 4.68 116 4 C116.99 4 117.98 4 119 4 C117.75023244 7.65316671 117.32901247 8.78065836 114 11 C111.75677204 11.24609566 111.75677204 11.24609566 109.08357239 11.24050903 C108.06974991 11.24325836 107.05592743 11.24600769 106.01138306 11.24884033 C104.90008026 11.24164978 103.78877747 11.23445923 102.64379883 11.22705078 C100.88749901 11.22748886 100.88749901 11.22748886 99.09571838 11.22793579 C95.88518508 11.22678049 92.6748257 11.21674407 89.4643271 11.20278788 C86.10909419 11.19029264 82.75385793 11.18911097 79.39860535 11.18673706 C73.04504771 11.18051873 66.69155882 11.16410317 60.33803147 11.14403808 C53.10473557 11.12169003 45.8714364 11.11068841 38.63811457 11.10064721 C23.75870375 11.07973723 8.87936131 11.04415196 -6 11 C-4.02 7.37 -2.04 3.74 0 0 Z " fill="#145BCA" transform="translate(123,279)"/>
<path d="M0 0 C24.75 0 49.5 0 75 0 C75.99 1.98 76.98 3.96 78 6 C77.67 6.99 77.34 7.98 77 9 C76.47325684 7.85837402 75.94651367 6.71674805 75.40380859 5.54052734 C73.42999111 2.80887958 72.4172213 2.08835941 69.07794189 1.38116455 C65.22057863 1.20492208 61.39586963 1.23978666 57.5390625 1.3515625 C56.10569346 1.36717869 54.67228544 1.37952757 53.23886108 1.38876343 C49.46937889 1.42109678 45.7018286 1.49454339 41.9331665 1.57763672 C37.36902147 1.67129239 32.80422423 1.71959012 28.23944664 1.77156639 C24.68426214 1.81248483 21.12979175 1.8609622 17.57510376 1.93374634 C16.29042206 1.95641571 15.00574036 1.97908508 13.68212891 2.00244141 C12.55803619 2.02577545 11.43394348 2.0491095 10.27578735 2.07315063 C6.78142291 1.99511902 3.44749483 1.55905783 0 1 C0 0.67 0 0.34 0 0 Z " fill="#1673C4" transform="translate(125,89)"/>
<path d="M0 0 C1.5 1.1875 1.5 1.1875 3 3 C3 4.65 3 6.3 3 8 C-22.74 8 -48.48 8 -75 8 C-75.66 6.68 -76.32 5.36 -77 4 C-76.01 4.33 -75.02 4.66 -74 5 C-74 5.66 -74 6.32 -74 7 C-49.25 7 -24.5 7 1 7 C0.505 3.535 0.505 3.535 0 0 Z " fill="#0F84F2" transform="translate(310,149)"/>
<path d="M0 0 C0.33 0.66 0.66 1.32 1 2 C0.690625 2.70125 0.38125 3.4025 0.0625 4.125 C-1.34430688 7.93165392 -1.13712735 10.95474319 -1 15 C-2.32 15 -3.64 15 -5 15 C-6.50400397 16.75103957 -6.50400397 16.75103957 -7.625 19 C-8.8515625 21.25 -8.8515625 21.25 -10 23 C-10.66 23 -11.32 23 -12 23 C-12.144375 23.598125 -12.28875 24.19625 -12.4375 24.8125 C-12.8872439 26.56150404 -13.42892341 28.28677023 -14 30 C-14.66 30 -15.32 30 -16 30 C-11.9787714 19.45836801 -5.61622883 9.7642557 0 0 Z " fill="#0A54C6" transform="translate(73,174)"/>
<path d="M0 0 C0.33 0.66 0.66 1.32 1 2 C1.66 2 2.32 2 3 2 C1.74194623 6.50802601 0.09592835 9.4912812 -3 13 C-4.98 10.03 -6.96 7.06 -9 4 C-8.67 3.34 -8.34 2.68 -8 2 C-6.35 3.65 -4.7 5.3 -3 7 C-3.0928125 5.824375 -3.0928125 5.824375 -3.1875 4.625 C-3.125625 3.75875 -3.06375 2.8925 -3 2 C-2.01 1.34 -1.02 0.68 0 0 Z " fill="#0BA6E2" transform="translate(33,184)"/>
<path d="M0 0 C0.94928272 2.56306335 1.06529109 3.78780395 0.25 6.4375 C-1 9 -1 9 -2.5625 11.3125 C-4.49110336 14.91814977 -4.65572069 17.93750416 -5 22 C-6.5625 20.375 -6.5625 20.375 -8 18 C-7.63464111 13.42980891 -6.25219599 10.14508478 -4 6.1875 C-3.46375 5.23230469 -2.9275 4.27710938 -2.375 3.29296875 C-1 1 -1 1 0 0 Z " fill="#119ED0" transform="translate(16,141)"/>
<path d="M0 0 C1.23887947 4.33607816 0.33930401 6.01156986 -1.74609375 9.90625 C-2.97264361 11.95432079 -4.28451251 13.88185832 -5.6875 15.8125 C-8.10194552 18.80395093 -8.10194552 18.80395093 -9 22 C-9.99 22.33 -10.98 22.66 -12 23 C-10.46688715 17.48431813 -7.81247556 12.97965148 -4.875 8.125 C-4.40707031 7.34125 -3.93914062 6.5575 -3.45703125 5.75 C-2.30981892 3.83017528 -1.1573993 1.91369439 0 0 Z " fill="#0D53C2" transform="translate(136,256)"/>
<path d="M0 0 C1.32 0 2.64 0 4 0 C2.3003494 4.73474097 -0.13659027 8.96167111 -2.625 13.3125 C-3.04523438 14.05306641 -3.46546875 14.79363281 -3.8984375 15.55664062 C-4.92948495 17.37269011 -5.96436046 19.18656533 -7 21 C-7.33 21 -7.66 21 -8 21 C-8.125 15.25 -8.125 15.25 -7 13 C-6.01 13 -5.02 13 -4 13 C-4 11.68 -4 10.36 -4 9 C-3.34 9 -2.68 9 -2 9 C-2.33 7.68 -2.66 6.36 -3 5 C-2.01 5 -1.02 5 0 5 C-0.2784375 4.0409375 -0.2784375 4.0409375 -0.5625 3.0625 C-0.706875 2.381875 -0.85125 1.70125 -1 1 C-0.67 0.67 -0.34 0.34 0 0 Z " fill="#0B4FBC" transform="translate(109,244)"/>
<path d="M0 0 C0.99 0.33 1.98 0.66 3 1 C3 1.99 3 2.98 3 4 C3.99 4.33 4.98 4.66 6 5 C5.01 5 4.02 5 3 5 C3.061875 5.763125 3.12375 6.52625 3.1875 7.3125 C3 10 3 10 1.625 11.8125 C0 13 0 13 -2 13 C-2.0825 13.763125 -2.165 14.52625 -2.25 15.3125 C-3.14615794 18.52373261 -4.21611025 19.29374499 -7 21 C-5.63361396 15.80773304 -3.11322313 11.86573827 -0.14453125 7.46484375 C1.2345495 4.49487805 0.94837927 3.07538018 0 0 Z " fill="#0C5ECE" transform="translate(81,153)"/>
<path d="M0 0 C0.66 0 1.32 0 2 0 C2 0.99 2 1.98 2 3 C2.66 3.33 3.32 3.66 4 4 C6 6 6 6 6 10 C6.66 10 7.32 10 8 10 C8.28875 11.134375 8.5775 12.26875 8.875 13.4375 C9.24625 14.613125 9.6175 15.78875 10 17 C10.66 17.33 11.32 17.66 12 18 C13.1875 19.875 13.1875 19.875 14 22 C13.67 22.99 13.34 23.98 13 25 C11.01288402 21.58789799 9.03671399 18.16958064 7.0625 14.75 C6.49853516 13.78191406 5.93457031 12.81382813 5.35351562 11.81640625 C4.81533203 10.88183594 4.27714844 9.94726562 3.72265625 8.984375 C2.97640991 7.69611816 2.97640991 7.69611816 2.21508789 6.38183594 C1.1141045 4.22366959 0.46221596 2.36616252 0 0 Z " fill="#116AB0" transform="translate(59,113)"/>
<path d="M0 0 C0.66 0 1.32 0 2 0 C1.66830805 6.30214697 -1.67323988 10.85216936 -5 16 C-5.94484589 12.6100949 -6.16242542 10.39785892 -5 7 C-3.66666667 6.33333333 -2.33333333 5.66666667 -1 5 C-0.18828772 2.44480079 -0.18828772 2.44480079 0 0 Z " fill="#0A51BF" transform="translate(272,225)"/>
<path d="M0 0 C3.18678372 2.92352767 5.21723295 5.81612841 7.25 9.625 C7.77078125 10.58664063 8.2915625 11.54828125 8.828125 12.5390625 C10 15 10 15 10 17 C8 17 8 17 6.50390625 15.8203125 C4.68873696 13.62325045 3.90117171 11.55143235 2.9375 8.875 C1.84375141 5.18625758 1.84375141 5.18625758 -1 3 C-0.67 2.01 -0.34 1.02 0 0 Z " fill="#116BBB" transform="translate(238,25)"/>
<path d="M0 0 C0.99 0 1.98 0 3 0 C3.26554687 0.71027344 3.53109375 1.42054688 3.8046875 2.15234375 C4.15789063 3.07144531 4.51109375 3.99054688 4.875 4.9375 C5.22304688 5.85402344 5.57109375 6.77054688 5.9296875 7.71484375 C6.7819086 10.14941056 6.7819086 10.14941056 9 11 C10.6875 14.375 10.6875 14.375 12 18 C11.67 18.99 11.34 19.98 11 21 C9.15966024 17.87907566 7.32893744 14.75261783 5.5 11.625 C4.97535156 10.73554688 4.45070313 9.84609375 3.91015625 8.9296875 C3.41386719 8.07890625 2.91757812 7.228125 2.40625 6.3515625 C1.94541016 5.56604004 1.48457031 4.78051758 1.00976562 3.97119141 C0 2 0 2 0 0 Z " fill="#0F4CAD" transform="translate(56,241)"/>
<path d="M0 0 C0.625 1.8125 0.625 1.8125 1 4 C0.01 5.485 0.01 5.485 -1 7 C-1.25030977 9.58380177 -1.25030977 9.58380177 -1 12 C-0.67 12.33 -0.34 12.66 0 13 C0.04063832 14.66617115 0.042721 16.33388095 0 18 C-5.09868421 12.24342105 -5.09868421 12.24342105 -5 8 C-3.56134269 5.16499883 -1.85092515 2.58104788 0 0 Z " fill="#116EBD" transform="translate(51,80)"/>
<path d="M0 0 C2.97 0.495 2.97 0.495 6 1 C5.67 2.65 5.34 4.3 5 6 C5.99 6.33 6.98 6.66 8 7 C7.34 8.32 6.68 9.64 6 11 C0 3.28571429 0 3.28571429 0 0 Z " fill="#0955CD" transform="translate(48,227)"/>
<path d="M0 0 C0.33 1.32 0.66 2.64 1 4 C0.34 4 -0.32 4 -1 4 C-1.144375 4.763125 -1.28875 5.52625 -1.4375 6.3125 C-2.52941176 11.52941176 -2.52941176 11.52941176 -4 13 C-3.67 13.66 -3.34 14.32 -3 15 C-4.65 15.33 -6.3 15.66 -8 16 C-6.42986223 10.03347646 -3.24970218 5.17090975 0 0 Z " fill="#0D52C0" transform="translate(56,204)"/>
<path d="M0 0 C0.66 0.33 1.32 0.66 2 1 C-0.97 6.61 -3.94 12.22 -7 18 C-7.33 18 -7.66 18 -8 18 C-7.67 15.69 -7.34 13.38 -7 11 C-6.34 11 -5.68 11 -5 11 C-5 9.68 -5 8.36 -5 7 C-4.34 7 -3.68 7 -3 7 C-3 5.68 -3 4.36 -3 3 C-2.34 3 -1.68 3 -1 3 C-0.67 2.01 -0.34 1.02 0 0 Z " fill="#0B53B3" transform="translate(140,192)"/>
<path d="M0 0 C0.66 0 1.32 0 2 0 C2.33 1.65 2.66 3.3 3 5 C3.99 5.33 4.98 5.66 6 6 C6 7.32 6 8.64 6 10 C6.66 10 7.32 10 8 10 C10.1519437 13.22791555 10.20086443 14.28400809 10 18 C6.12358085 13.67630171 0 6.04191557 0 0 Z " fill="#126EB9" transform="translate(223,135)"/>
<path d="M0 0 C0.66 0 1.32 0 2 0 C2.66 1.98 3.32 3.96 4 6 C1.69 6.66 -0.62 7.32 -3 8 C-3 8.66 -3 9.32 -3 10 C-3.66 10 -4.32 10 -5 10 C-3.66749209 6.4124787 -2.169283 3.1635377 0 0 Z " fill="#128CBC" transform="translate(30,117)"/>
<path d="M0 0 C4.05910468 1.35303489 4.9213069 3.34436731 7 7 C7 8.32 7 9.64 7 11 C7.66 11 8.32 11 9 11 C9.33 12.98 9.66 14.96 10 17 C7.04185281 14.38772848 5.28123892 11.33429693 3.3125 7.9375 C2.37857422 6.34228516 2.37857422 6.34228516 1.42578125 4.71484375 C0 2 0 2 0 0 Z " fill="#188BBA" transform="translate(12,165)"/>
<path d="M0 0 C3.28465896 2.79196011 5.01321958 6.23196817 7 10 C7 10.66 7 11.32 7 12 C5.35 11.67 3.7 11.34 2 11 C0.80712589 7.12315913 0 4.08378077 0 0 Z " fill="#1074C2" transform="translate(267,75)"/>
<path d="M0 0 C0.99 0 1.98 0 3 0 C1.23570801 4.97209562 -1.3939166 9.43438061 -4 14 C-4.33 14 -4.66 14 -5 14 C-5 11.69 -5 9.38 -5 7 C-4.01 7 -3.02 7 -2 7 C-2 6.01 -2 5.02 -2 4 C-1.34 4 -0.68 4 0 4 C0 2.68 0 1.36 0 0 Z " fill="#0D4EB1" transform="translate(303,172)"/>
<path d="M0 0 C0.33 0 0.66 0 1 0 C1.78287497 6.10642479 -0.89174849 10.00459579 -4 15 C-6 12 -6 12 -6 10 C-5.01 10 -4.02 10 -3 10 C-2.67 7.69 -2.34 5.38 -2 3 C-1.34 3 -0.68 3 0 3 C0 2.01 0 1.02 0 0 Z " fill="#0B46AE" transform="translate(313,154)"/>
<path d="M0 0 C3.20609302 3.00398974 4.95593298 6.12332117 7 10 C7 10.66 7 11.32 7 12 C2.125 10.125 2.125 10.125 1 9 C0.76807135 7.48530552 0.58784762 5.96245438 0.4375 4.4375 C0.35371094 3.61121094 0.26992188 2.78492188 0.18359375 1.93359375 C0.12300781 1.29550781 0.06242187 0.65742188 0 0 Z " fill="#0C6BB9" transform="translate(303,137)"/>
<path d="M0 0 C2.57933891 2.57933891 3.97362706 4.43841328 5.6875 7.5625 C6.12449219 8.34753906 6.56148437 9.13257813 7.01171875 9.94140625 C8 12 8 12 8 14 C7.34 14 6.68 14 6 14 C5.67 13.01 5.34 12.02 5 11 C4.01 10.67 3.02 10.34 2 10 C1.34 6.7 0.68 3.4 0 0 Z " fill="#0E69B2" transform="translate(148,134)"/>
<path d="M0 0 C1.32 0 2.64 0 4 0 C2.23570801 4.97209562 -0.3939166 9.43438061 -3 14 C-3.33 12.68 -3.66 11.36 -4 10 C-3.34 10 -2.68 10 -2 10 C-2 8.68 -2 7.36 -2 6 C-1.34 6 -0.68 6 0 6 C0 4.02 0 2.04 0 0 Z " fill="#0D4EB5" transform="translate(123,219)"/>
<path d="M0 0 C-1.32 0.33 -2.64 0.66 -4 1 C-4 1.66 -4 2.32 -4 3 C-3.01 3.33 -2.02 3.66 -1 4 C-4 5 -4 5 -7 4 C-7 4.99 -7 5.98 -7 7 C-7.99 7.33 -8.98 7.66 -10 8 C-7.95662621 2.18424383 -6.49689233 -0.52677505 0 0 Z " fill="#1077CA" transform="translate(90,24)"/>
<path d="M0 0 C1 2 1 2 0.44140625 4.1640625 C0.15136719 4.97617187 -0.13867188 5.78828125 -0.4375 6.625 C-0.72496094 7.44226563 -1.01242188 8.25953125 -1.30859375 9.1015625 C-1.65083984 10.04128906 -1.65083984 10.04128906 -2 11 C-3.32 10.67 -4.64 10.34 -6 10 C-4.02 6.7 -2.04 3.4 0 0 Z " fill="#104EB5" transform="translate(123,279)"/>
<path d="M0 0 C1.0625 1.8125 1.0625 1.8125 2 4 C1 7 1 7 -2.0625 8.6875 C-3.031875 9.120625 -4.00125 9.55375 -5 10 C-3.66511872 6.40608886 -2.03977277 3.24509304 0 0 Z " fill="#0D79D2" transform="translate(76,37)"/>
<path d="M0 0 C2.5 1.25 2.5 1.25 5 3 C5 4.32 5 5.64 5 7 C5.99 7 6.98 7 8 7 C7.34 8.32 6.68 9.64 6 11 C4.9944239 9.54550599 3.99569565 8.08627557 3 6.625 C2.443125 5.81289062 1.88625 5.00078125 1.3125 4.1640625 C0 2 0 2 0 0 Z " fill="#1884AF" transform="translate(24,186)"/>
<path d="M0 0 C6 7.71428571 6 7.71428571 6 11 C3.525 10.01 3.525 10.01 1 9 C0.67 6.03 0.34 3.06 0 0 Z " fill="#1291BF" transform="translate(34,123)"/>
<path d="M0 0 C1.1875 1.6875 1.1875 1.6875 2 4 C0.75 6.75 0.75 6.75 -1 9 C-1.66 9 -2.32 9 -3 9 C-3 9.66 -3 10.32 -3 11 C-3.66 11 -4.32 11 -5 11 C-3.55049545 7.2089881 -1.84827434 3.6125362 0 0 Z " fill="#0C53C2" transform="translate(212,197)"/>
<path d="M0 0 C0.33 1.32 0.66 2.64 1 4 C0.34 4 -0.32 4 -1 4 C-1.0825 4.763125 -1.165 5.52625 -1.25 6.3125 C-2.14615794 9.52373261 -3.21611025 10.29374499 -6 12 C-4.68139111 7.38486888 -2.78644563 3.90102388 0 0 Z " fill="#0E52C0" transform="translate(80,162)"/>
<path d="M0 0 C0.66 0 1.32 0 2 0 C0.125 5.75 0.125 5.75 -1 8 C-2.9375 7.625 -2.9375 7.625 -5 7 C-5.33 6.34 -5.66 5.68 -6 5 C-4.68 5.33 -3.36 5.66 -2 6 C-2 4.68 -2 3.36 -2 2 C-1.34 2 -0.68 2 0 2 C0 1.34 0 0.68 0 0 Z " fill="#134EB8" transform="translate(89,282)"/>
<path d="M0 0 C0.66 0 1.32 0 2 0 C0.66511872 3.59391114 -0.96022723 6.75490696 -3 10 C-3.66 8.68 -4.32 7.36 -5 6 C-4.34 5.67 -3.68 5.34 -3 5 C-2.67 4.01 -2.34 3.02 -2 2 C-1.34 2 -0.68 2 0 2 C0 1.34 0 0.68 0 0 Z " fill="#0D4BAE" transform="translate(95,272)"/>
<path d="M0 0 C0.66 0.99 1.32 1.98 2 3 C-1.625 9.875 -1.625 9.875 -5 11 C-3.77472971 6.94718288 -2.30119506 3.55639236 0 0 Z " fill="#0E4CAE" transform="translate(129,268)"/>
<path d="M0 0 C0.33 0.66 0.66 1.32 1 2 C0.06421005 4.35981813 -0.93347808 6.69631264 -2 9 C-2.66 9 -3.32 9 -4 9 C-4 9.99 -4 10.98 -4 12 C-4.66 12 -5.32 12 -6 12 C-4.43358249 7.69235185 -2.31663844 3.93828536 0 0 Z " fill="#0E4AA8" transform="translate(73,174)"/>
<path d="M0 0 C0.75 1.625 0.75 1.625 1 4 C-0.8125 7.25 -0.8125 7.25 -3 10 C-3.66 10 -4.32 10 -5 10 C-3.66511872 6.40608886 -2.03977277 3.24509304 0 0 Z " fill="#106FBE" transform="translate(57,70)"/>
<path d="M0 0 C1.98 0 3.96 0 6 0 C7.5625 2.8125 7.5625 2.8125 9 6 C8.67 6.99 8.34 7.98 8 9 C7.67386719 8.51789063 7.34773437 8.03578125 7.01171875 7.5390625 C6.57472656 6.90742187 6.13773438 6.27578125 5.6875 5.625 C5.25824219 4.99851562 4.82898438 4.37203125 4.38671875 3.7265625 C2.93079661 1.73621155 2.93079661 1.73621155 0 0 Z " fill="#126CB4" transform="translate(194,89)"/>
<path d="M0 0 C0.99 0.33 1.98 0.66 3 1 C3 2.32 3 3.64 3 5 C3.66 5 4.32 5 5 5 C5.33 6.98 5.66 8.96 6 11 C2.90407165 7.4912812 1.25805377 4.50802601 0 0 Z " fill="#1370B7" transform="translate(217,124)"/>
<path d="M0 0 C0.99 0 1.98 0 3 0 C1.52307692 4.67692308 1.52307692 4.67692308 -1.125 6.3125 C-2.053125 6.6528125 -2.053125 6.6528125 -3 7 C-2.38722388 4.03824877 -1.74627478 2.61941217 0 0 Z " fill="#0D4BAE" transform="translate(239,283)"/>
<path d="M0 0 C0.66 0 1.32 0 2 0 C3.03789581 1.64333504 4.03567924 3.31243867 5 5 C5.66 5.66 6.32 6.32 7 7 C6.34 8.32 5.68 9.64 5 11 C3.35 7.37 1.7 3.74 0 0 Z " fill="#1375BF" transform="translate(208,108)"/>
<path d="M0 0 C1.74271938 2.297221 3.39911152 4.59866729 5 7 C4.625 9.1875 4.625 9.1875 4 11 C4 10.01 4 9.02 4 8 C3.01 7.67 2.02 7.34 1 7 C0.67 4.69 0.34 2.38 0 0 Z " fill="#1260A7" transform="translate(156,148)"/>
<path d="M0 0 C0.66 0.33 1.32 0.66 2 1 C0.68 3.64 -0.64 6.28 -2 9 C-2.33 9 -2.66 9 -3 9 C-3 7.02 -3 5.04 -3 3 C-2.34 3 -1.68 3 -1 3 C-0.67 2.01 -0.34 1.02 0 0 Z " fill="#0D49AD" transform="translate(140,192)"/>
<path d="M0 0 C3 1 3 1 4.6875 4.0625 C5.120625 5.031875 5.55375 6.00125 6 7 C5.34 7.66 4.68 8.32 4 9 C0 2.25 0 2.25 0 0 Z " fill="#127FB3" transform="translate(12,165)"/>
<path d="M0 0 C4.42857143 5.14285714 4.42857143 5.14285714 5 9 C2 8 2 8 0.8125 6.1875 C0 4 0 4 0 0 Z " fill="#136DB6" transform="translate(277,92)"/>
<path d="M0 0 C2.72426311 2.35277269 3.8141763 4.62496331 5 8 C2.525 7.01 2.525 7.01 0 6 C0 4.02 0 2.04 0 0 Z " fill="#0F6EB8" transform="translate(260,63)"/>
<path d="M0 0 C0.99 0.33 1.98 0.66 3 1 C3 1.99 3 2.98 3 4 C3.66 4 4.32 4 5 4 C4.67 5.32 4.34 6.64 4 8 C0 2.25 0 2.25 0 0 Z " fill="#104DB7" transform="translate(78,279)"/>
<path d="M0 0 C1.1875 1.6875 1.1875 1.6875 2 4 C0.625 6.75 0.625 6.75 -1 9 C-2.60031344 5.79937313 -1.03173691 3.27728194 0 0 Z " fill="#0B4AB0" transform="translate(264,239)"/>
<path d="M0 0 C0.99 0.33 1.98 0.66 3 1 C1.92598892 3.91517292 1.22189824 5.77810176 -1 8 C-0.67 5.36 -0.34 2.72 0 0 Z " fill="#0D4DBB" transform="translate(285,202)"/>
<path d="M0 0 C0.33 1.32 0.66 2.64 1 4 C0.34 4 -0.32 4 -1 4 C-1.33 5.65 -1.66 7.3 -2 9 C-2.66 9 -3.32 9 -4 9 C-2.94124926 5.59687262 -1.99097846 2.98646769 0 0 Z " fill="#114FB4" transform="translate(226,172)"/>
<path d="M0 0 C0.66 0 1.32 0 2 0 C4.1519437 3.22791555 4.20086443 4.28400809 4 8 C0 3.375 0 3.375 0 0 Z " fill="#1079C6" transform="translate(229,145)"/>
<path d="M0 0 C0.33 1.32 0.66 2.64 1 4 C0.34 4 -0.32 4 -1 4 C-1.33 5.32 -1.66 6.64 -2 8 C-2.66 8 -3.32 8 -4 8 C-2.87548273 5.0280615 -1.77706209 2.66559313 0 0 Z " fill="#167EB1" transform="translate(16,141)"/>
</svg>
